<svg id="Layer_1" data-name="Layer 1" xmlns="http://www.w3.org/2000/svg" xmlns:xlink="http://www.w3.org/1999/xlink" viewBox="0 0 1366 320"><defs><style>.cls-1{fill:none;}.cls-2{clip-path:url(#clip-path);}.cls-3{fill:#22384f;}.cls-4{fill:#25b5d9;}.cls-5{fill:#9ce9f5;}.cls-6{fill:#9ce1f0;}.cls-7{fill:#b5ecf8;}</style><clipPath id="clip-path"><rect class="cls-1" x="0.55" y="-222.17" width="1365.1" height="611.1"/></clipPath></defs><g id="Layer_2" data-name="Layer 2"><g id="Layer_1-2" data-name="Layer 1-2"><g class="cls-2"><rect class="cls-3" x="0.55" y="-10.77" width="1365.1" height="399.6"/><path class="cls-4" d="M544.75,61.63c-2.5,7.1-4.9,14.7-.6,21.4s18.4,10.7,26.2,5.7c4.7-3,5.7-8.1,11.1-10.5s13.8,0,15.2,4.2c1,3-1.1,6.3.2,9.3,2.5,5.5,13.8,6.1,20.4,9.8,10.4,6,6,18.5,15.7,25,17,11.5,16.1,28.5-1.4,40.4-13.8,9.4-33.8,13.5-53.4,15.4s-39.4,1.9-58.6,5c-48.4,7.7-86.1,33.4-133.1,44.2-33.7,7.8-70.3,7.5-105.9,7.1-111.8-1-240.2-10-287.9-90.2-3.4-5.6-8.4-12.6-17.5-12.5-10,.2-14.1,8.6-15.4,15.3-4.8,24.2-5.6,50.9-17.2,74-9.8,19.7-7.8,35.3,7.9,54.6,26.6,35,75,61.7,129.8,75.5s115.7,15.3,173,7.2c65.3-9.2,125.3-30,186.7-47.3q74.7-21.15,153.1-35.6c26.5-4.9,53.3-9.1,80.2-12.9,23.3-3.3,34.6-17.7,44.8-31.4,19-25.8,30.5-54.1,33.6-82.8.8-7,1-14.1-1.3-20.9-3-8.8-10.2-16.6-18-23.9-7.1-6.6-15-13.1-25-17.6-12.8-5.8-28.6-8.3-40.4-15-6.9-3.9-12-9.1-18.3-13.4-9.9-6.8-22.5-11.6-35.3-15.5-11.1-3.4-22.9-6.4-35.2-6.5s-25.2,3-32.3,9.7C540.45,54,546.75,55.83,544.75,61.63Z"/><path class="cls-4" d="M1041,188.83c14.8-1.8,28.6-7.5,43.7-7,12.6.4,23.9,5,35.9,7.4,23.7,4.8,51.3.3,69.6-10.8,21.2-12.9,13.8-31.5,45.2-40.1,16.3-4.5,34.3-5,51.9-6.2s35.7-3.3,50-10.3c16-7.9,26.7-21.7,46.3-24.5,20-2.9,38.7,7.6,51,18.7,15.2,13.7,27.6,30.4,32.3,47.3,4.2,15.3,13,32,12.5,47.5-.6,21.6-16.1,42.4-38.7,57.8s-52.1,25.7-82.7,32.4a430.37,430.37,0,0,1-151.8,5.2c-44.6-6.5-86.1-19.8-127.2-33.1-29.1-9.4-58.7-19-82.6-33.5-18-11-32.2-24.3-48.1-36.6-16.4-12.8-35.1-21.6-55.5-31.4,26.2-2.9,50.7-.1,75,6.3C991,183.83,1015.45,192,1041,188.83Z"/><path class="cls-5" d="M573.25,200.83a282.32,282.32,0,0,1,37.9,1.1c17.2,1.7,34.8,5.1,51.8,2.2,11.5-2,24.2-9,25.8-17.4,2.4-12.9-13.9-6.1-26.1-7.8-6.2-.9-11.7-4.2-12.5-8.4s3.8-8.7,10.1-9.1c10.4-.6,19.5,8.9,29,5.8,8-2.6,6-11.3,12.9-15.1,7.5-4.1,19.1.5,28.1-1.8,11.4-2.9,10.4-14.1,5.1-19.9-7.2-7.8-23.7-9.6-35.2-13.1-1.8-.5-3.7-1.3-4.3-2.5s.3-2.9,1.1-4.3c4.2-8.1-6-18-18.8-18.1-7.4-.1-14.2,2.5-21.5,3.3s-16.6-1.5-17.1-6.5c-.2-2.3,1.5-4.4,2.5-6.6,4.5-10.8-11.5-20.2-26.1-25.6-9.4-3.5-19.7-6.8-30.5-6.2-13.1.8-24.3,7.6-29.2,15.8s-4.3,17.5-1.2,26.1c2,5.3,4.9,10.8,2.8,16s-12.2,9.3-18.4,5.9c-8.4-4.7-.2-16.4-9.6-20.1-8.4-3.3-20.2,4.7-28,.8-5.2-2.6-3.3-7.8-1.1-11.1,3-4.5,6.8-7.6,5.3-13-1.5-5.2-8.5-9.2-16.2-10.5s-15.8-.6-23.5.7a99.29,99.29,0,0,1-12.2,1.6c-9.4.3-18.7-3.2-23.3-8.7s-4.5-12.9.7-18.1,15-8.2,24.3-7.5c5.7.5,11,2.2,16.3,3.8a90.12,90.12,0,0,0,21.5,4.3c21.4,1.1,31.1-11.8,47.2-18.4,15.8-6.5,38.6-3.6,49.9,6.3,2.7,2.4,4.8,5.2,8.3,7,10,5.2,26.8,1,35.6,7.1,4.1,2.8,5.1,7,7,10.7,4.4,8.8,14.8,16.1,27.7,19.4,8.9,2.3,18.6,2.7,27.6,4.8,15.2,3.5,27.2,11.3,37.7,19.4,20.4,15.9,29.9,35.8,50.4,52,19.7,15.7,44.6,28.6,72.3,37.3,5.6,1.8,12.3,3.4,17.8,1.5,12.1-4.1,3.7-16.4-5.7-22.9l-43.9-30.3c-9.3-6.5-18.4-17.7-7.7-23.1,8.7-4.5,21.8,1.3,25.3,8.3s1.6,14.7,3.8,21.9c5.1,17,36.7,28.4,61.7,32.9s46,4.5,68.7,12.6c20.4,7.3,35.8,19.7,57.3,25.9,7.9,2.3,17.7,4.5,26.5,3.9,15.9-1,28.4-14.4,45.2-9.1,5.6,1.8,7.4,4.6,14.3,4.8,10.8.4,20.1-5.7,31.2-3.6,4.2.8,7.6,2.7,11,4.5s6.8,3.8,11,4.5c25.1,4.7,38.1-32.4,65.8-32.6,16.8-.1,28,11.4,43.1,16.5,18.6,6.3,40.8,2.2,60.9-1.5,47.5-9,106.5-13.6,138.7,11.5,17.4,13.6,21.7,32.5,24.3,50.4a549.68,549.68,0,0,1,6,92.4c-.5,26.6-3.9,55-27.9,76-25.8,22.5-69.4,31.7-110.4,38.1-139.1,21.6-282.6,25.5-425.2,29.3-115.6,3.1-231.8,6.2-347-1.6-63.1-4.2-127.8-12.3-179.9-36.5-25.5-11.9-47.3-27.4-74.5-37.5-40.9-15.2-74-5.8-114.6,3-46.6,10-97.2,14.1-145.1,5.7-36.1-6.4-69-19.5-98.9-34.5-14.8-7.4-29.3-15.6-38.3-26.4-17.2-20.6-11.2-46-4.8-69.2,5-17.8,11.7-37.5,33.9-47.6,12.9-5.9,28.9-7.5,44.5-8.1,5.3-.2,10.3,1.3,15-1.1,2.1-1.1,4-2.7,6.6-2.6,3,.1,5.1,2.4,8,2.3a11.22,11.22,0,0,0,4.3-1.6c4-2.1,8.4-2.5,13.1-3.2,5.7-.8,11.2-1.5,17-.5a42.49,42.49,0,0,1,10.4,3.5c2.4,1.1,5,3.6,8,3.8,2.4.1,5.2-.3,7.3.6,1.2.5,1.3,1.7,3,1.9.8.1,1.9-.8,2.8-.9a9.08,9.08,0,0,1,4,.6c2.6,1,4.7,2.3,7.7,2.9,4.1.8,8.6.9,12.8,1.4,9.6,1.1,19.2,2.2,28.8,3.2,24.4,2.7,49.1,5.1,73.8,5.9a452.49,452.49,0,0,0,54.6-1.3c28.5-2.5,56.1-8.4,82.9-15.3,13.7-3.5,27.2-7.3,40.8-11.2,11.7-3.3,21.7-3.2,29.5-10.9,4.1-4.1,8-8.8,14.7-10.9,16-5,31.3,5.9,47.5.1C533.05,202.53,555.05,201.53,573.25,200.83Z"/><path class="cls-6" d="M672.65,108.83c-3.8-2.1-9.9-1.2-13,1.4-2.4,2-3,5.1-.5,7.1a10.41,10.41,0,0,0,4.8,1.8c3.9.5,8.2-.6,10.3-2.9S675.75,110.43,672.65,108.83Z"/><path class="cls-6" d="M594.25,109.63a9.1,9.1,0,0,0,6.3-.2,3.9,3.9,0,0,0,2-2c1.3-2.5-.7-5.9-4.6-6.5-3.2-.5-6.8,1-7.7,3.2S591.25,108.63,594.25,109.63Z"/><path class="cls-6" d="M416.25,49.43a2.92,2.92,0,0,0-.9-3.6c-1.8-1.3-5.4-1-6.8.6s-.4,3.7,1.8,4.6a5.75,5.75,0,0,0,4.8-.1A2.3,2.3,0,0,0,416.25,49.43Z"/><path class="cls-6" d="M494.45,69.23a9.1,9.1,0,0,0-6.3-.1c-2.7,1.2-2.6,4.1-.6,5.8,2.3,1.9,7.4,2.4,9.6.4S497.65,70.33,494.45,69.23Z"/><path class="cls-6" d="M611.65,24.63c-2.1-2.1-7.2-2.6-10-.8-.8.5-1.5,1.3-1.4,2a2.22,2.22,0,0,0,.8,1.3,9,9,0,0,0,7.3,3.2,4.92,4.92,0,0,0,3.9-2.2A2.71,2.71,0,0,0,611.65,24.63Z"/><path class="cls-4" d="M519.85,218.73a7.93,7.93,0,0,0,7,.9c2.3-.8,3.5-2.8,2.8-4.4s-3.3-2.9-5.8-2.8-4.6,1.4-5.2,2.9a2.77,2.77,0,0,0-.1,1.3A2.84,2.84,0,0,0,519.85,218.73Z"/><path class="cls-4" d="M802.25,92.83c3.3.1,6.6-1.5,7.4-3.7s-1-4.7-4.2-5.5C796.45,81.23,792.35,92.73,802.25,92.83Z"/><path class="cls-4" d="M501.25,165.33c2.4-4.9-7.7-7.7-10.4-3-1.6,2.8,3.9,6.9,8.1,5.1A3.94,3.94,0,0,0,501.25,165.33Z"/><path class="cls-4" d="M469.05,12.43a14.29,14.29,0,0,1,7.4-.1,21,21,0,0,1,6.4,2.6c3,2,4.8,4.7,7.4,6.9,6.8,5.7,19.7,7.6,29.3,4.4a52.67,52.67,0,0,1-9.5,3.9A45.37,45.37,0,0,1,502,32c-9.9,1.3-19.9-1.6-28.1-5.5-3.5-1.7-7-3.7-8.4-6.5S465.15,13.83,469.05,12.43Z"/><path class="cls-4" d="M691.85,53.13c5.9-2.1,13.2-1.9,19.3-.1a47,47,0,0,1,15.7,8.1c11.9,8.9,19.3,20.5,20.8,32.5-9.9-13.6-28.8-23.7-50.2-28.6-5.1-1.2-11.3-3-11.4-6.6C686.05,56.13,688.85,54.23,691.85,53.13Z"/><path class="cls-4" d="M774.45,212.43a3.7,3.7,0,0,0,.6-2.1,4.71,4.71,0,0,0-2.4-4.4c-2.7-1.7-7.5-1.3-10.1.5a5.69,5.69,0,0,0-2.2,7,3.92,3.92,0,0,0,1.7,2.1c1.8,1,4.5.7,6.7.1S773.45,214,774.45,212.43Z"/><path class="cls-6" d="M901.85,147.83a4.32,4.32,0,0,0-2.6-1.3c-2.4-.5-5.3.2-6.2,1.7s.9,3.7,3.5,4,5.3-1.2,5.6-2.9A1.88,1.88,0,0,0,901.85,147.83Z"/><path class="cls-4" d="M459.45,217.83c1.8-3,6-5.2,10.5-6.4a62.51,62.51,0,0,1,14.3-1.4,27.54,27.54,0,0,1,7,.5c2.2.5,4.2,1.7,4.6,3.3.5,2-1.5,3.8-3.6,5.2a48.68,48.68,0,0,1-18.8,7c-4.4.7-9.6.8-12.7-1.5A5,5,0,0,1,459.45,217.83Z"/><path class="cls-4" d="M63,244.53c-2.5-1.1-5-3-3.8-4.8.7-1,2.2-1.5,3.7-1.9a65.42,65.42,0,0,1,32.3.3,21.3,21.3,0,0,1,5.6,2.3c1.5,1.1,2.5,2.6,2,4.1-.8,2.5-5.1,3.7-8.9,4.2A61.79,61.79,0,0,1,63,244.53Z"/><path class="cls-4" d="M106.25,247.33c.8,1.4,3.5,2.1,5.5,1.5s3-2.4,2.1-3.8-3.6-2-5.6-1.4S105.45,246,106.25,247.33Z"/><path class="cls-4" d="M118.55,248.53a5.91,5.91,0,0,0,4.3.8c1.5-.4,2.6-1.4,2.4-2.5s-1.6-2-3.2-1.9a3.72,3.72,0,0,0-2.8,1.3A2.49,2.49,0,0,0,118.55,248.53Z"/><path class="cls-4" d="M44.45,246a7,7,0,0,0,4.2-1.1,2.4,2.4,0,0,0,.8-3.2c-.8-1.4-3.2-2.2-5.4-1.9s-3.8,1.8-3.7,3.3S42.25,245.83,44.45,246Z"/><path class="cls-4" d="M1136.65,219.83a55.82,55.82,0,0,0,18.1,3.4c4.6.2,10.2-.7,11.8-3.6,1-1.8-.1-3.9-2-5.4a19.28,19.28,0,0,0-7.4-3,63.68,63.68,0,0,0-16.3-1.8c-4.4.1-9.8,1.1-10.6,4S1133.15,218.43,1136.65,219.83Z"/><path class="cls-7" d="M1326.15,299.53c-180.6-4.7-348.7-97.8-525.6-72.5-84.4,12.1-156.9,50.3-241.7,61.3-73.3,9.5-148.9-2.2-223.4.2-73.7,2.3-145.1,18.3-218.6,22.6-58,3.3-121.4-2.6-167.8-24.5q-1.8,5.4-3.3,10.8c-6.5,23.2-12.4,48.6,4.8,69.2,9,10.8,23.6,19,38.3,26.4,29.9,15,62.8,28.2,98.9,34.5,47.9,8.4,98.5,4.3,145.1-5.7,40.6-8.7,73.8-18.2,114.6-3,27.1,10.1,49,25.6,74.5,37.5,19,8.9,39.8,15.6,61.6,20.7l282.3,18.9,25.4,1.7c52.6-.4,105.1-1.8,157.6-3.2,142.6-3.8,286.1-7.7,425.2-29.3,41.1-6.4,84.6-15.6,110.3-38.1,24.1-21.1,27.4-49.5,27.9-76q.45-24.15-1.2-48.3a302.51,302.51,0,0,0-31.4-3.9C1428.75,295,1377.35,300.93,1326.15,299.53Z"/><path class="cls-7" d="M817.35,118c1.4,4.8,8.9,11.6,17.4,8.6,6.5-2.3,3.5-7.6.9-10.9a15.38,15.38,0,0,0-6.7-4.8c-3-1-6.8-.9-9.3.6A5.6,5.6,0,0,0,817.35,118Z"/><path class="cls-7" d="M601.05,40.83c6.9,1.4,14.7.4,21.1,2.5s9.7,6.7,13.2,10.9,8.3,8.4,15.3,9.1c-6.4-3-9.4-8.2-12.4-13.1s-7.2-10-14.5-11.8c-7-1.7-15.3,0-21.7-2.4-5-1.9-7.4-5.8-10.7-8.9-8.4-8-24.7-11.8-38.7-8.9-17.6,3.6-28.7,15.9-46.1,20a54.77,54.77,0,0,1-24.5.1c-7.5-1.7-14-5-21.5-6.6-6.5-1.3-13.9-1.3-19.5,1.3s-8.6,7.9-5.5,11.9c3.8,4.9,14,5.6,22,4.2s15.4-4.5,23.6-4.7c6.6-.2,13,1.3,19.6,1.3,8.7,0,16.8-2.8,24-6.1s13.8-7.2,21.5-9.9,17-4.1,25.1-2.2C582.85,30,589.55,38.43,601.05,40.83Z"/><path class="cls-7" d="M515.65,83.83A6.48,6.48,0,0,0,512,82a8.6,8.6,0,0,0-5.9,2.2c-2.1,1.6-4.1,3.4-4,5.5.2,2.3,3.4,4.3,6.8,4.4s6.8-1.5,8.1-3.7S517.55,85.73,515.65,83.83Z"/><path class="cls-7" d="M546.05,96.63c1.1,5.4,0,12-7.2,14.5,3.2,2.9,10.7,1.6,13.3-1.6s1.8-7,.6-10.5c-3.5-10.2-9.8-20.1-10.9-30.6s4.1-22.3,17.9-27.3c-10.4,1-18.6,7.1-21.6,13.9s-1.8,14.1.6,21S544.65,89.63,546.05,96.63Z"/><path class="cls-7" d="M722.05,117a14,14,0,0,1-13-9.9c-1.4-4.6-1.2-9.7-4.6-13.8-4.1-4.9-12.6-7.5-21-8s-16.7.9-24.9,1.9c-3.1.4-6.6.7-9.2-.5s-2.9-4.5.2-5.1c-4.4.4-6.5,4.3-4.5,7s6.7,3.9,11.1,4,8.7-.8,13-1.4c6.4-.9,13.1-1.3,19.3,0s11.9,4.4,13.5,8.6c1.3,3.2.2,6.7,1.5,10C705.55,114.93,714.35,118.43,722.05,117Z"/><path class="cls-7" d="M854.85,185.53c5.7,1.8,11.6,3.5,17.8,3.5s12.9-2.1,15-6.1c2.3,2.2.3,5.5-3.1,7s-7.7,1.5-11.7,1.2c-19.7-1.4-37.3-8.5-54.3-15.5-18.6-7.7-37.9-15.8-49.4-28.4-10.8-11.9-13.4-26.5-24.4-38.3,13.3,11.5,20.5,25.7,32.9,37.6C796.35,164.53,825.45,176.23,854.85,185.53Z"/><path class="cls-7" d="M892.65,168.53c10.8,5.7,24.7,8,38.2,9.5s27.4,2.6,40,6.3c14.8,4.3,26.9,11.9,39.9,18.3s28.3,12,44.5,11.1c10.9-.6,21-4.1,31.6-5.9,7.4-1.3,16.8-1.8,23.8.7,5.4,1.9,11.4,5.6,17.1,1.3-2,3.7-8.8,5.3-14.6,4.9s-11.3-2.1-17.1-2.9c-19.2-2.6-39.2,5.9-58.3,2.7-10.1-1.7-18.3-6.4-26.7-10.6a239.15,239.15,0,0,0-57.6-19.7c-21.3-4.5-44.3-6.7-63.1-14.9"/><path class="cls-7" d="M1214.45,198.13c7.2-4.8,15.6-9.7,25.7-9.9,10.4-.2,19.3,4.5,27.8,8.5,11.4,5.4,24.3,10.2,38.3,10.5s27.2-4.1,40.6-7.2,28.8-4.8,40.8.2c9.6,4,14.5,11.4,19,18.3-11.4-6.1-23.3-12.4-37.5-14.6-12.4-2-25.5-.7-37.9,1.3s-24.6,4.8-37.3,5.9-26.2.3-37-4.4c-5.4-2.3-9.8-5.5-15-8s-11.7-4.3-17.9-3.4c-8,1.2-12.8,6.5-17.1,11.1s-9.7,9.8-17.8,10.5A276.31,276.31,0,0,1,1214.45,198.13Z"/><path class="cls-7" d="M32.65,245.83c-13.8,2.2-27.8,4.5-42,4.2v-1.6A91.86,91.86,0,0,1,32.65,245.83Z"/><path class="cls-7" d="M411.65,240.33c-88.1,23.7-187.7,27.5-279.2,10.6,30.7,11.9,65.7,14.9,101.1,14.9s70.6-4.2,105.5-8.4C365,254.33,390.05,250.63,411.65,240.33Z"/><path class="cls-7" d="M669.75,167.33c-.4-1.6-2.3-3.1-4.6-3.6-3-.7-6.7.3-8.2,2.2s-.7,4.5,1.9,5.8a9.75,9.75,0,0,0,8.8-.3A4,4,0,0,0,669.75,167.33Z"/></g></g></g></svg>