<?xml version="1.0" encoding="utf-8"?>
<!-- Generator: Adobe Illustrator 24.1.0, SVG Export Plug-In . SVG Version: 6.00 Build 0)  -->
<svg version="1.1" id="Layer_1" xmlns="http://www.w3.org/2000/svg" xmlns:xlink="http://www.w3.org/1999/xlink" x="0px" y="0px"
	 viewBox="0 0 1365.1 398" style="enable-background:new 0 0 1365.1 398;" xml:space="preserve">
<style type="text/css">
	.st0{clip-path:url(#SVGID_2_);}
	.st1{fill:#22384F;}
	.st2{fill:#25B5D9;}
	.st3{fill:#9CE9F5;}
	.st4{fill:#9CE1F0;}
	.st5{fill:#B5ECF8;}
</style>
<g id="Layer_2_1_">
	<g id="Layer_1-2">
		<g>
			<g>
				<defs>
					<rect id="SVGID_1_" y="-211.4" width="1365.1" height="611.1"/>
				</defs>
				<clipPath id="SVGID_2_">
					<use xlink:href="#SVGID_1_"  style="overflow:visible;"/>
				</clipPath>
				<g class="st0">
					<rect class="st1" width="1365.1" height="399.6"/>
					<path class="st2" d="M544.2,72.4c-2.5,7.1-4.9,14.7-0.6,21.4c4.3,6.7,18.4,10.7,26.2,5.7c4.7-3,5.7-8.1,11.1-10.5
						c5.4-2.4,13.8,0,15.2,4.2c1,3-1.1,6.3,0.2,9.3c2.5,5.5,13.8,6.1,20.4,9.8c10.4,6,6,18.5,15.7,25c17,11.5,16.1,28.5-1.4,40.4
						c-13.8,9.4-33.8,13.5-53.4,15.4s-39.4,1.9-58.6,5c-48.4,7.7-86.1,33.4-133.1,44.2c-33.7,7.8-70.3,7.5-105.9,7.1
						c-111.8-1-240.2-10-287.9-90.2c-3.4-5.6-8.4-12.6-17.5-12.5c-10,0.2-14.1,8.6-15.4,15.3c-4.8,24.2-5.6,50.9-17.2,74
						c-9.8,19.7-7.8,35.3,7.9,54.6c26.6,35,75,61.7,129.8,75.5s115.7,15.3,173,7.2c65.3-9.2,125.3-30,186.7-47.3
						c49.8-14.1,100.9-26,153.1-35.6c26.5-4.9,53.3-9.1,80.2-12.9c23.3-3.3,34.6-17.7,44.8-31.4c19-25.8,30.5-54.1,33.6-82.8
						c0.8-7,1-14.1-1.3-20.9c-3-8.8-10.2-16.6-18-23.9c-7.1-6.6-15-13.1-25-17.6c-12.8-5.8-28.6-8.3-40.4-15
						c-6.9-3.9-12-9.1-18.3-13.4c-9.9-6.8-22.5-11.6-35.3-15.5c-11.1-3.4-22.9-6.4-35.2-6.5c-12.3-0.1-25.2,3-32.3,9.7
						C539.9,64.8,546.2,66.6,544.2,72.4z"/>
					<path class="st2" d="M1040.4,199.6c14.8-1.8,28.6-7.5,43.7-7c12.6,0.4,23.9,5,35.9,7.4c23.7,4.8,51.3,0.3,69.6-10.8
						c21.2-12.9,13.8-31.5,45.2-40.1c16.3-4.5,34.3-5,51.9-6.2c17.5-1.2,35.7-3.3,50-10.3c16-7.9,26.7-21.7,46.3-24.5
						c20-2.9,38.7,7.6,51,18.7c15.2,13.7,27.6,30.4,32.3,47.3c4.2,15.3,13,32,12.5,47.5c-0.6,21.6-16.1,42.4-38.7,57.8
						s-52.1,25.7-82.7,32.4c-49.9,10.7-101.3,12.5-151.8,5.2c-44.6-6.5-86.1-19.8-127.2-33.1c-29.1-9.4-58.7-19-82.6-33.5
						c-18-11-32.2-24.3-48.1-36.6c-16.4-12.8-35.1-21.6-55.5-31.4c26.2-2.9,50.7-0.1,75,6.3C990.4,194.6,1014.9,202.8,1040.4,199.6z
						"/>
					<path class="st3" d="M572.7,211.6c12.6-0.5,25.3-0.1,37.9,1.1c17.2,1.7,34.8,5.1,51.8,2.2c11.5-2,24.2-9,25.8-17.4
						c2.4-12.9-13.9-6.1-26.1-7.8c-6.2-0.9-11.7-4.2-12.5-8.4c-0.8-4.2,3.8-8.7,10.1-9.1c10.4-0.6,19.5,8.9,29,5.8
						c8-2.6,6-11.3,12.9-15.1c7.5-4.1,19.1,0.5,28.1-1.8c11.4-2.9,10.4-14.1,5.1-19.9c-7.2-7.8-23.7-9.6-35.2-13.1
						c-1.8-0.5-3.7-1.3-4.3-2.5c-0.6-1.2,0.3-2.9,1.1-4.3c4.2-8.1-6-18-18.8-18.1c-7.4-0.1-14.2,2.5-21.5,3.3
						c-7.3,0.8-16.6-1.5-17.1-6.5c-0.2-2.3,1.5-4.4,2.5-6.6c4.5-10.8-11.5-20.2-26.1-25.6c-9.4-3.5-19.7-6.8-30.5-6.2
						c-13.1,0.8-24.3,7.6-29.2,15.8s-4.3,17.5-1.2,26.1c2,5.3,4.9,10.8,2.8,16s-12.2,9.3-18.4,5.9c-8.4-4.7-0.2-16.4-9.6-20.1
						c-8.4-3.3-20.2,4.7-28,0.8c-5.2-2.6-3.3-7.8-1.1-11.1c3-4.5,6.8-7.6,5.3-13c-1.5-5.2-8.5-9.2-16.2-10.5s-15.8-0.6-23.5,0.7
						c-4,0.8-8.1,1.3-12.2,1.6c-9.4,0.3-18.7-3.2-23.3-8.7s-4.5-12.9,0.7-18.1s15-8.2,24.3-7.5c5.7,0.5,11,2.2,16.3,3.8
						c6.9,2.1,14,3.9,21.5,4.3c21.4,1.1,31.1-11.8,47.2-18.4c15.8-6.5,38.6-3.6,49.9,6.3c2.7,2.4,4.8,5.2,8.3,7
						c10,5.2,26.8,1,35.6,7.1c4.1,2.8,5.1,7,7,10.7c4.4,8.8,14.8,16.1,27.7,19.4c8.9,2.3,18.6,2.7,27.6,4.8
						c15.2,3.5,27.2,11.3,37.7,19.4c20.4,15.9,29.9,35.8,50.4,52c19.7,15.7,44.6,28.6,72.3,37.3c5.6,1.8,12.3,3.4,17.8,1.5
						c12.1-4.1,3.7-16.4-5.7-22.9L825,141.5c-9.3-6.5-18.4-17.7-7.7-23.1c8.7-4.5,21.8,1.3,25.3,8.3c3.5,7,1.6,14.7,3.8,21.9
						c5.1,17,36.7,28.4,61.7,32.9c24.9,4.5,46,4.5,68.7,12.6c20.4,7.3,35.8,19.7,57.3,25.9c7.9,2.3,17.7,4.5,26.5,3.9
						c15.9-1,28.4-14.4,45.2-9.1c5.6,1.8,7.4,4.6,14.3,4.8c10.8,0.4,20.1-5.7,31.2-3.6c4.2,0.8,7.6,2.7,11,4.5
						c3.4,1.8,6.8,3.8,11,4.5c25.1,4.7,38.1-32.4,65.8-32.6c16.8-0.1,28,11.4,43.1,16.5c18.6,6.3,40.8,2.2,60.9-1.5
						c47.5-9,106.5-13.6,138.7,11.5c17.4,13.6,21.7,32.5,24.3,50.4c4.6,30.6,6.6,61.5,6,92.4c-0.5,26.6-3.9,55-27.9,76
						c-25.8,22.5-69.4,31.7-110.4,38.1c-139.1,21.6-282.6,25.5-425.2,29.3c-115.6,3.1-231.8,6.2-347-1.6
						c-63.1-4.2-127.8-12.3-179.9-36.5c-25.5-11.9-47.3-27.4-74.5-37.5c-40.9-15.2-74-5.8-114.6,3c-46.6,10-97.2,14.1-145.1,5.7
						c-36.1-6.4-69-19.5-98.9-34.5c-14.8-7.4-29.3-15.6-38.3-26.4c-17.2-20.6-11.2-46-4.8-69.2c5-17.8,11.7-37.5,33.9-47.6
						c12.9-5.9,28.9-7.5,44.5-8.1c5.3-0.2,10.3,1.3,15-1.1c2.1-1.1,4-2.7,6.6-2.6c3,0.1,5.1,2.4,8,2.3c1.5-0.2,3-0.8,4.3-1.6
						c4-2.1,8.4-2.5,13.1-3.2c5.7-0.8,11.2-1.5,17-0.5c3.6,0.7,7.1,1.9,10.4,3.5c2.4,1.1,5,3.6,8,3.8c2.4,0.1,5.2-0.3,7.3,0.6
						c1.2,0.5,1.3,1.7,3,1.9c0.8,0.1,1.9-0.8,2.8-0.9c1.4-0.1,2.7,0.1,4,0.6c2.6,1,4.7,2.3,7.7,2.9c4.1,0.8,8.6,0.9,12.8,1.4
						c9.6,1.1,19.2,2.2,28.8,3.2c24.4,2.7,49.1,5.1,73.8,5.9c18.2,0.7,36.4,0.2,54.6-1.3c28.5-2.5,56.1-8.4,82.9-15.3
						c13.7-3.5,27.2-7.3,40.8-11.2c11.7-3.3,21.7-3.2,29.5-10.9c4.1-4.1,8-8.8,14.7-10.9c16-5,31.3,5.9,47.5,0.1
						C532.5,213.3,554.5,212.3,572.7,211.6z"/>
					<path class="st4" d="M672.1,119.6c-3.8-2.1-9.9-1.2-13,1.4c-2.4,2-3,5.1-0.5,7.1c1.4,1,3.1,1.6,4.8,1.8
						c3.9,0.5,8.2-0.6,10.3-2.9C675.8,124.7,675.2,121.2,672.1,119.6z"/>
					<path class="st4" d="M593.7,120.4c2.1,0.7,4.3,0.6,6.3-0.2c0.9-0.4,1.6-1.1,2-2c1.3-2.5-0.7-5.9-4.6-6.5
						c-3.2-0.5-6.8,1-7.7,3.2S590.7,119.4,593.7,120.4z"/>
					<path class="st4" d="M415.7,60.2c0.6-1.3,0.2-2.8-0.9-3.6c-1.8-1.3-5.4-1-6.8,0.6s-0.4,3.7,1.8,4.6c1.5,0.7,3.3,0.6,4.8-0.1
						C415.2,61.3,415.6,60.8,415.7,60.2z"/>
					<path class="st4" d="M493.9,80c-2-0.8-4.3-0.8-6.3-0.1c-2.7,1.2-2.6,4.1-0.6,5.8c2.3,1.9,7.4,2.4,9.6,0.4
						C498.8,84.1,497.1,81.1,493.9,80z"/>
					<path class="st4" d="M611.1,35.4c-2.1-2.1-7.2-2.6-10-0.8c-0.8,0.5-1.5,1.3-1.4,2c0.1,0.5,0.4,1,0.8,1.3
						c1.7,1.8,4.2,3.5,7.3,3.2c1.6-0.1,3.1-0.9,3.9-2.2C612.4,37.6,612.1,36.2,611.1,35.4z"/>
					<path class="st2" d="M519.3,229.5c2.1,1.4,4.7,1.7,7,0.9s3.5-2.8,2.8-4.4c-0.7-1.6-3.3-2.9-5.8-2.8c-2.4,0.1-4.6,1.4-5.2,2.9
						c-0.1,0.4-0.2,0.8-0.1,1.3C518.1,228.2,518.5,229,519.3,229.5z"/>
					<path class="st2" d="M801.7,103.6c3.3,0.1,6.6-1.5,7.4-3.7s-1-4.7-4.2-5.5C795.9,92,791.8,103.5,801.7,103.6z"/>
					<path class="st2" d="M500.7,176.1c2.4-4.9-7.7-7.7-10.4-3c-1.6,2.8,3.9,6.9,8.1,5.1C499.4,177.9,500.2,177.1,500.7,176.1z"/>
					<path class="st2" d="M468.5,23.2c2.4-0.7,5-0.7,7.4-0.1c2.3,0.5,4.4,1.4,6.4,2.6c3,2,4.8,4.7,7.4,6.9
						c6.8,5.7,19.7,7.6,29.3,4.4c-3,1.6-6.2,2.9-9.5,3.9c-2.6,0.9-5.4,1.5-8.1,1.9c-9.9,1.3-19.9-1.6-28.1-5.5
						c-3.5-1.7-7-3.7-8.4-6.5C463.5,28,464.6,24.6,468.5,23.2z"/>
					<path class="st2" d="M691.3,63.9c5.9-2.1,13.2-1.9,19.3-0.1c5.7,1.7,11,4.4,15.7,8.1c11.9,8.9,19.3,20.5,20.8,32.5
						c-9.9-13.6-28.8-23.7-50.2-28.6c-5.1-1.2-11.3-3-11.4-6.6C685.5,66.9,688.3,65,691.3,63.9z"/>
					<path class="st2" d="M773.9,223.2c0.4-0.6,0.6-1.3,0.6-2.1c0.1-1.8-0.8-3.5-2.4-4.4c-2.7-1.7-7.5-1.3-10.1,0.5
						c-2.3,1.5-3.3,4.4-2.2,7c0.3,0.9,0.9,1.6,1.7,2.1c1.8,1,4.5,0.7,6.7,0.1C770.5,225.8,772.9,224.8,773.9,223.2z"/>
					<path class="st4" d="M901.3,158.6c-0.7-0.7-1.6-1.2-2.6-1.3c-2.4-0.5-5.3,0.2-6.2,1.7c-0.9,1.5,0.9,3.7,3.5,4s5.3-1.2,5.6-2.9
						C901.7,159.5,901.6,159,901.3,158.6z"/>
					<path class="st2" d="M458.9,228.6c1.8-3,6-5.2,10.5-6.4c4.7-1,9.5-1.5,14.3-1.4c2.3-0.1,4.7,0,7,0.5c2.2,0.5,4.2,1.7,4.6,3.3
						c0.5,2-1.5,3.8-3.6,5.2c-5.7,3.6-12.1,6-18.8,7c-4.4,0.7-9.6,0.8-12.7-1.5C458.1,233.8,457.5,230.8,458.9,228.6z"/>
					<path class="st2" d="M62.4,255.3c-2.5-1.1-5-3-3.8-4.8c0.7-1,2.2-1.5,3.7-1.9c10.6-2.6,21.7-2.5,32.3,0.3
						c2,0.5,3.9,1.3,5.6,2.3c1.5,1.1,2.5,2.6,2,4.1c-0.8,2.5-5.1,3.7-8.9,4.2C82.9,260.8,72.2,259.3,62.4,255.3z"/>
					<path class="st2" d="M105.7,258.1c0.8,1.4,3.5,2.1,5.5,1.5c2-0.6,3-2.4,2.1-3.8c-0.9-1.4-3.6-2-5.6-1.4
						C105.7,255,104.9,256.8,105.7,258.1z"/>
					<path class="st2" d="M118,259.3c1.3,0.8,2.8,1.1,4.3,0.8c1.5-0.4,2.6-1.4,2.4-2.5s-1.6-2-3.2-1.9c-1.1,0-2.1,0.5-2.8,1.3
						C118.1,257.6,117.8,258.5,118,259.3z"/>
					<path class="st2" d="M43.9,256.8c1.5,0.1,2.9-0.3,4.2-1.1c1.1-0.7,1.4-2.1,0.8-3.2c-0.8-1.4-3.2-2.2-5.4-1.9s-3.8,1.8-3.7,3.3
						S41.7,256.6,43.9,256.8z"/>
					<path class="st2" d="M1136.1,230.6c5.8,2.1,11.9,3.3,18.1,3.4c4.6,0.2,10.2-0.7,11.8-3.6c1-1.8-0.1-3.9-2-5.4
						c-2.2-1.5-4.7-2.5-7.4-3c-5.3-1.3-10.8-1.9-16.3-1.8c-4.4,0.1-9.8,1.1-10.6,4C1128.9,227,1132.6,229.2,1136.1,230.6z"/>
					<path class="st5" d="M1325.6,310.3c-180.6-4.7-348.7-97.8-525.6-72.5c-84.4,12.1-156.9,50.3-241.7,61.3
						c-73.3,9.5-148.9-2.2-223.4,0.2c-73.7,2.3-145.1,18.3-218.6,22.6c-58,3.3-121.4-2.6-167.8-24.5c-1.2,3.6-2.3,7.2-3.3,10.8
						c-6.5,23.2-12.4,48.6,4.8,69.2c9,10.8,23.6,19,38.3,26.4c29.9,15,62.8,28.2,98.9,34.5c47.9,8.4,98.5,4.3,145.1-5.7
						c40.6-8.7,73.8-18.2,114.6-3c27.1,10.1,49,25.6,74.5,37.5c19,8.9,39.8,15.6,61.6,20.7l282.3,18.9l25.4,1.7
						c52.6-0.4,105.1-1.8,157.6-3.2c142.6-3.8,286.1-7.7,425.2-29.3c41.1-6.4,84.6-15.6,110.3-38.1c24.1-21.1,27.4-49.5,27.9-76
						c0.3-16.1-0.1-32.2-1.2-48.3c-10.4-1.8-20.9-3.2-31.4-3.9C1428.2,305.8,1376.8,311.7,1325.6,310.3z"/>
					<path class="st5" d="M816.8,128.8c1.4,4.8,8.9,11.6,17.4,8.6c6.5-2.3,3.5-7.6,0.9-10.9c-1.7-2.2-4.1-3.8-6.7-4.8
						c-3-1-6.8-0.9-9.3,0.6C816.9,123.7,816,126.4,816.8,128.8z"/>
					<path class="st5" d="M600.5,51.6c6.9,1.4,14.7,0.4,21.1,2.5s9.7,6.7,13.2,10.9s8.3,8.4,15.3,9.1c-6.4-3-9.4-8.2-12.4-13.1
						c-3-4.9-7.2-10-14.5-11.8c-7-1.7-15.3,0-21.7-2.4c-5-1.9-7.4-5.8-10.7-8.9c-8.4-8-24.7-11.8-38.7-8.9
						c-17.6,3.6-28.7,15.9-46.1,20c-8.1,1.9-16.4,1.9-24.5,0.1c-7.5-1.7-14-5-21.5-6.6c-6.5-1.3-13.9-1.3-19.5,1.3
						c-5.6,2.5-8.6,7.9-5.5,11.9c3.8,4.9,14,5.6,22,4.2s15.4-4.5,23.6-4.7c6.6-0.2,13,1.3,19.6,1.3c8.7,0,16.8-2.8,24-6.1
						c7.2-3.3,13.8-7.2,21.5-9.9s17-4.1,25.1-2.2C582.3,40.8,589,49.2,600.5,51.6z"/>
					<path class="st5" d="M515.1,94.6c-1-1-2.3-1.6-3.7-1.8c-2.3-0.2-4.4,1-5.9,2.2c-2.1,1.6-4.1,3.4-4,5.5c0.2,2.3,3.4,4.3,6.8,4.4
						c3.4,0.1,6.8-1.5,8.1-3.7S517,96.5,515.1,94.6z"/>
					<path class="st5" d="M545.5,107.4c1.1,5.4,0,12-7.2,14.5c3.2,2.9,10.7,1.6,13.3-1.6s1.8-7,0.6-10.5
						c-3.5-10.2-9.8-20.1-10.9-30.6s4.1-22.3,17.9-27.3c-10.4,1-18.6,7.1-21.6,13.9s-1.8,14.1,0.6,21
						C540.6,93.7,544.1,100.4,545.5,107.4z"/>
					<path class="st5" d="M721.5,127.8c-6-0.2-11.2-4.1-13-9.9c-1.4-4.6-1.2-9.7-4.6-13.8c-4.1-4.9-12.6-7.5-21-8
						c-8.4-0.5-16.7,0.9-24.9,1.9c-3.1,0.4-6.6,0.7-9.2-0.5s-2.9-4.5,0.2-5.1c-4.4,0.4-6.5,4.3-4.5,7c2,2.7,6.7,3.9,11.1,4
						c4.4,0.1,8.7-0.8,13-1.4c6.4-0.9,13.1-1.3,19.3,0s11.9,4.4,13.5,8.6c1.3,3.2,0.2,6.7,1.5,10C705,125.7,713.8,129.2,721.5,127.8
						z"/>
					<path class="st5" d="M854.3,196.3c5.7,1.8,11.6,3.5,17.8,3.5c6.2,0,12.9-2.1,15-6.1c2.3,2.2,0.3,5.5-3.1,7
						c-3.4,1.5-7.7,1.5-11.7,1.2c-19.7-1.4-37.3-8.5-54.3-15.5c-18.6-7.7-37.9-15.8-49.4-28.4c-10.8-11.9-13.4-26.5-24.4-38.3
						c13.3,11.5,20.5,25.7,32.9,37.6C795.8,175.3,824.9,187,854.3,196.3z"/>
					<path class="st5" d="M892.1,179.3c10.8,5.7,24.7,8,38.2,9.5c13.5,1.5,27.4,2.6,40,6.3c14.8,4.3,26.9,11.9,39.9,18.3
						s28.3,12,44.5,11.1c10.9-0.6,21-4.1,31.6-5.9c7.4-1.3,16.8-1.8,23.8,0.7c5.4,1.9,11.4,5.6,17.1,1.3c-2,3.7-8.8,5.3-14.6,4.9
						c-5.8-0.4-11.3-2.1-17.1-2.9c-19.2-2.6-39.2,5.9-58.3,2.7c-10.1-1.7-18.3-6.4-26.7-10.6c-18.3-9-37.6-15.6-57.6-19.7
						c-21.3-4.5-44.3-6.7-63.1-14.9"/>
					<path class="st5" d="M1213.9,208.9c7.2-4.8,15.6-9.7,25.7-9.9c10.4-0.2,19.3,4.5,27.8,8.5c11.4,5.4,24.3,10.2,38.3,10.5
						s27.2-4.1,40.6-7.2s28.8-4.8,40.8,0.2c9.6,4,14.5,11.4,19,18.3c-11.4-6.1-23.3-12.4-37.5-14.6c-12.4-2-25.5-0.7-37.9,1.3
						s-24.6,4.8-37.3,5.9s-26.2,0.3-37-4.4c-5.4-2.3-9.8-5.5-15-8s-11.7-4.3-17.9-3.4c-8,1.2-12.8,6.5-17.1,11.1
						c-4.3,4.6-9.7,9.8-17.8,10.5C1196.6,221,1205.1,214.7,1213.9,208.9z"/>
					<path class="st5" d="M32.1,256.6c-13.8,2.2-27.8,4.5-42,4.2v-1.6C3.7,255.1,18.1,254.2,32.1,256.6z"/>
					<path class="st5" d="M411.1,251.1c-88.1,23.7-187.7,27.5-279.2,10.6c30.7,11.9,65.7,14.9,101.1,14.9s70.6-4.2,105.5-8.4
						C364.4,265.1,389.5,261.4,411.1,251.1z"/>
					<path class="st5" d="M669.2,178.1c-0.4-1.6-2.3-3.1-4.6-3.6c-3-0.7-6.7,0.3-8.2,2.2s-0.7,4.5,1.9,5.8c2.8,1.3,6.1,1.2,8.8-0.3
						C668.6,181.5,669.4,179.8,669.2,178.1z"/>
				</g>
			</g>
		</g>
	</g>
</g>
</svg>
